<svg width="94" height="94" viewBox="0 0 94 94" fill="none" xmlns="http://www.w3.org/2000/svg">
<path d="M89.0903 40.9365H72.9145V26.1283H86.1684C87.3061 26.1267 88.3966 25.6738 89.2008 24.8691C90.005 24.0643 90.457 22.9735 90.4578 21.8358V4.29246C90.4563 3.15451 90.0035 2.06364 89.1989 1.25899C88.3942 0.454345 87.3033 0.00159376 86.1654 0L56.9315 0C55.7933 0.000797887 54.702 0.453294 53.8972 1.25811C53.0924 2.06293 52.6399 3.15427 52.6391 4.29246V11.6966H43.6776V7.2294C43.6776 5.31204 42.9159 3.47322 41.5602 2.11744C40.2044 0.761667 38.3656 0 36.4482 0L7.2294 0C5.31204 0 3.47322 0.761667 2.11744 2.11744C0.761667 3.47322 0 5.31204 0 7.2294L0 89.1023C0.0055682 90.2377 0.460073 91.3247 1.26429 92.1261C2.06851 92.9275 3.15712 93.3782 4.29246 93.3797H39.3821C40.5209 93.3797 41.613 92.9276 42.4184 92.1227C43.2239 91.3178 43.6768 90.226 43.6776 89.0873V68.5257H49.7021V89.0873C49.7025 89.6514 49.814 90.2098 50.0302 90.7308C50.2465 91.2518 50.5632 91.7252 50.9624 92.1237C51.3615 92.5223 51.8353 92.8384 52.3566 93.0539C52.8779 93.2694 53.4365 93.3801 54.0006 93.3797H89.0903C90.2277 93.3773 91.3178 92.9242 92.1218 92.1197C92.9258 91.3151 93.3781 90.2247 93.3797 89.0873V45.2259C93.3789 44.0877 92.9264 42.9964 92.1216 42.1916C91.3168 41.3867 90.2255 40.9343 89.0873 40.9335L89.0903 40.9365ZM90.6476 45.2289V52.633H78.4691C78.723 51.9824 78.8143 51.2797 78.7351 50.5858C78.6559 49.8919 78.4086 49.2278 78.0146 48.6511C77.6206 48.0744 77.0919 47.6026 76.4742 47.2766C75.8566 46.9505 75.1687 46.7801 74.4703 46.7801C73.7719 46.7801 73.0841 46.9505 72.4664 47.2766C71.8488 47.6026 71.3201 48.0744 70.9261 48.6511C70.5321 49.2278 70.2848 49.8919 70.2056 50.5858C70.1264 51.2797 70.2177 51.9824 70.4716 52.633H67.0647V48.1508C67.0647 47.7881 66.9206 47.4403 66.6642 47.1838C66.4077 46.9273 66.0599 46.7832 65.6972 46.7832H56.9315C56.5688 46.7832 56.221 46.9273 55.9645 47.1838C55.708 47.4403 55.5639 47.7881 55.5639 48.1508V52.63H52.4463V45.2259C52.4463 44.8129 52.6103 44.4168 52.9024 44.1247C53.1945 43.8327 53.5906 43.6686 54.0036 43.6686H89.0903C89.5033 43.6686 89.8994 43.8327 90.1915 44.1247C90.4835 44.4168 90.6476 44.8129 90.6476 45.2259V45.2289ZM72.9145 51.0757C72.9145 50.7677 73.0058 50.4666 73.177 50.2105C73.3481 49.9544 73.5913 49.7548 73.8759 49.6369C74.1604 49.519 74.4736 49.4882 74.7757 49.5483C75.0778 49.6084 75.3552 49.7567 75.573 49.9745C75.7908 50.1923 75.9392 50.4698 75.9992 50.7719C76.0593 51.074 76.0285 51.3871 75.9106 51.6717C75.7928 51.9562 75.5931 52.1995 75.337 52.3706C75.0809 52.5417 74.7798 52.633 74.4718 52.633C74.0588 52.633 73.6627 52.469 73.3706 52.1769C73.0786 51.8848 72.9145 51.4887 72.9145 51.0757ZM58.2961 52.633V49.5184H64.3206V52.63L58.2961 52.633ZM86.1684 23.3931H81.6862V11.5068H87.7107V21.8358C87.7107 22.0403 87.6704 22.2428 87.5921 22.4318C87.5139 22.6207 87.3992 22.7924 87.2545 22.937C87.1099 23.0816 86.9382 23.1963 86.7493 23.2746C86.5604 23.3528 86.3578 23.3931 86.1533 23.3931H86.1684ZM87.7257 4.29246V8.77167H81.7012V2.74717H86.1503C86.5634 2.74717 86.9595 2.91125 87.2515 3.2033C87.5436 3.49536 87.7077 3.89147 87.7077 4.3045L87.7257 4.29246ZM55.3742 4.29246C55.3742 3.87942 55.5383 3.48331 55.8303 3.19125C56.1224 2.8992 56.5185 2.73512 56.9315 2.73512H78.951V23.3901H56.9315C56.5185 23.3901 56.1224 23.226 55.8303 22.934C55.5383 22.6419 55.3742 22.2458 55.3742 21.8328V4.29246ZM2.73813 61.2149H5.75038C5.77515 61.2149 5.7989 61.2248 5.81641 61.2423C5.83393 61.2598 5.84376 61.2835 5.84376 61.3083V71.55C5.84376 71.5747 5.83393 71.5985 5.81641 71.616C5.7989 71.6335 5.77515 71.6433 5.75038 71.6433H2.73813V61.2149ZM2.73813 36.3609H5.75038C5.77515 36.3609 5.7989 36.3707 5.81641 36.3882C5.83393 36.4057 5.84376 36.4295 5.84376 36.4542V46.6959C5.84376 46.7081 5.84135 46.7203 5.83666 46.7316C5.83196 46.743 5.82508 46.7532 5.81641 46.7619C5.80774 46.7706 5.79745 46.7775 5.78612 46.7822C5.77479 46.7869 5.76265 46.7893 5.75038 46.7893H2.73813V36.3609ZM40.9395 89.0752C40.9395 89.4883 40.7754 89.8844 40.4833 90.1764C40.1913 90.4685 39.7952 90.6326 39.3821 90.6326H4.29246C3.87942 90.6326 3.48331 90.4685 3.19125 90.1764C2.8992 89.8844 2.73512 89.4883 2.73512 89.0752V74.3724H5.74737C6.49729 74.3716 7.21627 74.0734 7.74654 73.5431C8.27682 73.0128 8.57508 72.2939 8.57587 71.5439V61.3023C8.57508 60.5524 8.27682 59.8334 7.74654 59.3031C7.21627 58.7728 6.49729 58.4746 5.74737 58.4738H2.73512V55.3682H33.5324C33.8951 55.3682 34.2429 55.2241 34.4994 54.9676C34.7558 54.7111 34.8999 54.3633 34.8999 54.0006C34.8999 53.6379 34.7558 53.2901 34.4994 53.0336C34.2429 52.7771 33.8951 52.633 33.5324 52.633H2.73813V49.5184H5.75038C6.12222 49.5188 6.4905 49.4459 6.83419 49.304C7.17787 49.1621 7.49024 48.9538 7.75345 48.6912C8.01666 48.4285 8.22556 48.1166 8.36822 47.7732C8.51088 47.4298 8.58451 47.0617 8.58491 46.6899V36.4482C8.58491 35.6978 8.287 34.978 7.75664 34.4471C7.22628 33.9162 6.50685 33.6175 5.75641 33.6167H2.74416V7.2294C2.74297 6.63963 2.85811 6.05541 3.08298 5.5102C3.30785 4.96498 3.63804 4.46946 4.05466 4.05201C4.47127 3.63456 4.96612 3.30337 5.51088 3.0774C6.05565 2.85143 6.63963 2.73512 7.2294 2.73512H36.4482C37.0382 2.73472 37.6225 2.85075 38.1677 3.07654C38.7128 3.30233 39.208 3.63346 39.6249 4.05095C40.0418 4.46844 40.3723 4.96409 40.5974 5.5095C40.8224 6.05491 40.9377 6.63937 40.9365 7.2294V52.63H39.3821C39.0194 52.63 38.6716 52.7741 38.4151 53.0306C38.1587 53.287 38.0146 53.6349 38.0146 53.9976C38.0146 54.3603 38.1587 54.7081 38.4151 54.9646C38.6716 55.2211 39.0194 55.3651 39.3821 55.3651H40.9365V89.0873L40.9395 89.0752ZM43.6746 65.7785V14.4317H52.636V21.8358C52.6368 22.9745 53.0898 24.0663 53.8952 24.8712C54.7007 25.6761 55.7928 26.1283 56.9315 26.1283H70.1854V40.9365H54.0096C53.445 40.9349 52.8857 41.0446 52.3635 41.2594C51.8414 41.4742 51.3667 41.7898 50.9666 42.1882C50.5665 42.5866 50.2489 43.0599 50.032 43.5812C49.815 44.1024 49.7029 44.6613 49.7021 45.2259V65.7875L43.6746 65.7785ZM89.0903 90.6326H54.0006C53.5876 90.6326 53.1914 90.4685 52.8994 90.1764C52.6073 89.8844 52.4433 89.4883 52.4433 89.0752V55.3682H90.6446V89.0873C90.6446 89.5003 90.4805 89.8964 90.1885 90.1885C89.8964 90.4805 89.5003 90.6446 89.0873 90.6446L89.0903 90.6326Z" fill="#3879F0"/>
<path d="M24.7606 11.6965H18.9108C18.1611 11.6981 17.4426 11.9966 16.9125 12.5268C16.3824 13.0569 16.0839 13.7754 16.0823 14.5251V17.4499C16.0831 18.1999 16.3813 18.9188 16.9116 19.4491C17.4419 19.9794 18.1608 20.2776 18.9108 20.2784H24.7606C25.1329 20.2796 25.5018 20.2074 25.8462 20.0658C26.1906 19.9242 26.5037 19.7161 26.7675 19.4534C27.0314 19.1906 27.2408 18.8785 27.3838 18.5347C27.5269 18.1909 27.6007 17.8223 27.6011 17.4499V14.5251C27.6003 14.1528 27.5262 13.7844 27.383 13.4408C27.2399 13.0972 27.0304 12.7852 26.7666 12.5225C26.5029 12.2598 26.19 12.0517 25.8457 11.91C25.5015 11.7683 25.1328 11.6957 24.7606 11.6965ZM24.8539 17.4499C24.8539 17.4747 24.8441 17.4985 24.8266 17.516C24.8091 17.5335 24.7853 17.5433 24.7606 17.5433H18.9108C18.886 17.5433 18.8622 17.5335 18.8447 17.516C18.8272 17.4985 18.8174 17.4747 18.8174 17.4499V14.5251C18.8174 14.5003 18.8272 14.4765 18.8447 14.459C18.8622 14.4415 18.886 14.4317 18.9108 14.4317H24.7606C24.7853 14.4317 24.8091 14.4415 24.8266 14.459C24.8441 14.4765 24.8539 14.5003 24.8539 14.5251V17.4499Z" fill="#3879F0"/>
<path d="M81.7795 49.5184H86.1744C86.5371 49.5184 86.885 49.3742 87.1414 49.1178C87.3979 48.8613 87.542 48.5135 87.542 48.1508C87.542 47.7881 87.3979 47.4403 87.1414 47.1838C86.885 46.9274 86.5371 46.7832 86.1744 46.7832H81.7886C81.4259 46.7832 81.078 46.9274 80.8216 47.1838C80.5651 47.4403 80.4211 47.7881 80.4211 48.1508C80.4211 48.5135 80.5651 48.8613 80.8216 49.1178C81.078 49.3742 81.4259 49.5184 81.7886 49.5184H81.7795Z" fill="#3879F0"/>
<path d="M71.5437 59.9408C68.9603 59.9408 66.4349 60.7068 64.2867 62.1419C62.1385 63.577 60.464 65.6168 59.475 68.0034C58.4859 70.39 58.2267 73.0163 58.73 75.5503C59.2334 78.0842 60.4767 80.412 62.3028 82.2394C64.129 84.0668 66.456 85.3118 68.9896 85.8169C71.5232 86.322 74.1496 86.0646 76.5369 85.0772C78.9242 84.0898 80.9652 82.4167 82.4018 80.2695C83.8384 78.1223 84.6061 75.5974 84.6079 73.0139C84.6063 69.5488 83.2297 66.2259 80.7803 63.7748C78.3309 61.3237 75.0089 59.9448 71.5437 59.9408ZM71.5437 83.3339C69.5005 83.3339 67.5032 82.7279 65.8044 81.5925C64.1056 80.4572 62.7817 78.8435 62.0002 76.9556C61.2187 75.0677 61.0146 72.9904 61.4139 70.9865C61.8132 68.9826 62.7979 67.1421 64.2433 65.698C65.6887 64.2538 67.53 63.2708 69.5342 62.8733C71.5385 62.4757 73.6155 62.6815 75.5027 63.4647C77.39 64.2479 79.0025 65.5733 80.1364 67.273C81.2703 68.9728 81.8746 70.9707 81.8728 73.0139C81.8672 75.7508 80.7769 78.3739 78.8408 80.3083C76.9047 82.2427 74.2806 83.3307 71.5437 83.3339Z" fill="#3879F0"/>
<path d="M76.8667 70.2276C76.5156 70.3184 76.215 70.5448 76.0308 70.8571C75.8467 71.1695 75.7941 71.5422 75.8847 71.8933C76.1292 72.8433 76.0547 73.8473 75.6726 74.7508C75.2905 75.6542 74.6221 76.407 73.7701 76.8932C72.9182 77.3795 71.9301 77.5722 70.9579 77.4417C69.9857 77.3113 69.0833 76.8649 68.3897 76.1713C67.6961 75.4777 67.2497 74.5754 67.1193 73.6032C66.9888 72.631 67.1815 71.6428 67.6678 70.7909C68.154 69.9389 68.9069 69.2705 69.8103 68.8884C70.7138 68.5063 71.7177 68.4318 72.6677 68.6763C73.0192 68.7669 73.3923 68.7143 73.705 68.5298C74.0176 68.3454 74.2443 68.0443 74.3349 67.6927C74.4256 67.3412 74.3729 66.9681 74.1885 66.6554C74.0041 66.3428 73.7029 66.1161 73.3514 66.0255C71.8206 65.6315 70.2028 65.7516 68.7469 66.3673C67.2911 66.9831 66.078 68.0602 65.2944 69.433C64.5109 70.8058 64.2003 72.3981 64.4105 73.9648C64.6207 75.5315 65.3399 76.9856 66.4577 78.1033C67.5754 79.2211 69.0295 79.9404 70.5962 80.1506C72.1629 80.3608 73.7552 80.0501 75.128 79.2666C76.5008 78.483 77.5779 77.2699 78.1937 75.8141C78.8094 74.3582 78.9295 72.7404 78.5355 71.2096C78.4906 71.0354 78.4118 70.8718 78.3036 70.7282C78.1954 70.5845 78.0598 70.4636 77.9048 70.3724C77.7498 70.2812 77.5784 70.2214 77.4002 70.1965C77.2221 70.1717 77.0408 70.1823 76.8667 70.2276Z" fill="#3879F0"/>
<path d="M59.8534 20.2785H74.4749C74.8376 20.2785 75.1854 20.1344 75.4419 19.8779C75.6983 19.6215 75.8424 19.2736 75.8424 18.9109V7.21436C75.8424 6.85166 75.6983 6.50382 75.4419 6.24735C75.1854 5.99088 74.8376 5.8468 74.4749 5.8468H71.55C71.1873 5.8468 70.8395 5.99088 70.583 6.24735C70.3265 6.50382 70.1824 6.85166 70.1824 7.21436C70.1824 7.57706 70.3265 7.9249 70.583 8.18137C70.8395 8.43784 71.1873 8.58193 71.55 8.58193H73.1073V17.5434H61.224V8.58193H65.7032C66.0659 8.58193 66.4138 8.43784 66.6702 8.18137C66.9267 7.9249 67.0708 7.57706 67.0708 7.21436C67.0708 6.85166 66.9267 6.50382 66.6702 6.24735C66.4138 5.99088 66.0659 5.8468 65.7032 5.8468H59.8534C59.4907 5.8468 59.1428 5.99088 58.8864 6.24735C58.6299 6.50382 58.4858 6.85166 58.4858 7.21436V18.9139C58.4866 19.2761 58.6311 19.6232 58.8875 19.879C59.1438 20.1348 59.4913 20.2785 59.8534 20.2785Z" fill="#3879F0"/>
</svg>
