<svg width="48" height="48" viewBox="0 0 48 48" fill="none" xmlns="http://www.w3.org/2000/svg">
<g clip-path="url(#clip0_1_377)">
<path d="M24.0001 0C13.5869 0 5.1153 8.47163 5.1153 18.8848C5.1153 24.699 7.75587 29.9079 11.9021 33.3749V45.5422C11.9021 47.2838 13.6661 48.4671 15.2736 47.821L24.0001 44.3175L32.7266 47.821C34.3381 48.4684 36.0981 47.2798 36.0981 45.5422V33.3749C40.2445 29.9079 42.8849 24.699 42.8849 18.8848C42.8849 8.47163 34.4133 0 24.0001 0V0ZM33.287 45.0165L24.9156 41.6554C24.3252 41.4183 23.675 41.4183 23.0846 41.6554L14.7132 45.0165V35.3239C20.4656 38.587 27.5367 38.5858 33.2869 35.3239V45.0165H33.287ZM31.0803 33.313C20.4685 38.5422 7.9264 30.7836 7.9264 18.8848C7.9264 10.0215 15.1368 2.81109 24.0001 2.81109C32.8634 2.81109 40.0738 10.0215 40.0738 18.8848C40.0738 25.1724 36.4352 30.6768 31.0803 33.313Z" fill="white"/>
<path d="M24.0002 6.15063C16.9791 6.15063 11.267 11.8637 11.267 18.8848C11.267 24.0497 14.3582 28.5071 18.7885 30.502C27.1609 34.2718 36.7334 28.1216 36.7334 18.8848C36.7334 11.8637 31.0213 6.15063 24.0002 6.15063ZM24.0002 28.8069C18.529 28.8069 14.0781 24.356 14.0781 18.8848C14.0781 13.4135 18.529 8.96163 24.0002 8.96163C29.4715 8.96163 33.9223 13.4134 33.9223 18.8847C33.9223 24.3559 29.4715 28.8069 24.0002 28.8069Z" fill="white"/>
<path d="M29.5086 15.2369L27.361 14.3552L25.9499 12.6583C24.9419 11.444 23.0777 11.4383 22.0603 12.6451L20.6201 14.3552L18.4837 15.2398C17.0031 15.8533 16.4565 17.6668 17.348 18.9963L18.5372 20.7673L18.658 23.0602C18.7427 24.7066 20.3521 25.8295 21.9226 25.355L23.9906 24.73C26.2488 25.4066 26.3332 25.4646 26.8148 25.4646C28.1287 25.4646 29.2807 24.4323 29.3438 23.0396L29.445 20.7673L30.6416 19.0104C31.5507 17.6781 30.9992 15.8477 29.5086 15.2369ZM26.5504 22.5627C23.6308 21.688 24.3404 21.6884 21.4465 22.5627C21.2822 19.4574 21.5447 20.2051 19.8694 17.7089C22.7098 16.5327 22.016 17.0608 23.9989 14.7085C25.9106 17.0088 25.2161 16.5135 28.1275 17.7089C26.4611 20.1527 26.6903 19.424 26.5504 22.5627Z" fill="white"/>
</g>
<defs>
<clipPath id="clip0_1_377">
<rect width="48" height="48" fill="white"/>
</clipPath>
</defs>
</svg>
