<svg width="93" height="95" viewBox="0 0 93 95" fill="none" xmlns="http://www.w3.org/2000/svg">
<path d="M80.9022 80.5989H76.9766C76.7793 80.5987 76.5855 80.6504 76.4145 80.7488C76.2435 80.8473 76.1014 80.989 76.0025 81.1597L74.0397 84.5592C73.941 84.7302 73.889 84.9241 73.889 85.1214C73.889 85.3188 73.941 85.5127 74.0397 85.6837L76.0025 89.0831C76.101 89.2544 76.2429 89.3967 76.4139 89.4956C76.585 89.5946 76.779 89.6467 76.9766 89.6468H80.9022C81.0998 89.6467 81.2939 89.5946 81.4649 89.4956C81.636 89.3967 81.7778 89.2544 81.8764 89.0831L83.8392 85.6837C83.9379 85.5127 83.9898 85.3188 83.9898 85.1214C83.9898 84.9241 83.9379 84.7302 83.8392 84.5592L81.8764 81.1597C81.7775 80.989 81.6354 80.8473 81.4644 80.7488C81.2934 80.6504 81.0995 80.5987 80.9022 80.5989ZM80.2605 87.3921H77.6357L76.3233 85.1171L77.6357 82.8421H80.2605L81.5728 85.1171L80.2605 87.3921Z" fill="#3879F0"/>
<path d="M52.9059 54.6345C49.6358 53.8198 46.489 52.5725 43.5487 50.9257L41.2101 49.6423V48.564C43.4036 46.6063 44.8545 43.9516 45.3178 41.0482L46.1503 35.7321C46.8442 35.664 47.501 35.3871 48.0343 34.938C48.5677 34.489 48.9523 33.8888 49.1377 33.2167C49.323 32.5446 49.3002 31.8321 49.0724 31.1732C48.8446 30.5143 48.4225 29.9399 47.8616 29.5258C48.2571 28.3659 48.5578 27.1758 48.7606 25.9673H49.1451C49.9316 25.9687 50.6927 25.689 51.2912 25.1786C51.8896 24.6682 52.286 23.9608 52.4088 23.1839C52.5316 22.4071 52.3727 21.6119 51.9609 20.9418C51.549 20.2718 50.9112 19.7709 50.1626 19.5297C50.0135 15.6385 48.7048 11.8807 46.4047 8.73864C44.2446 5.79147 41.2285 3.58187 37.7672 2.41087L37.8887 1.22567C37.9027 1.06972 37.8841 0.912551 37.8339 0.764221C37.7838 0.61589 37.7032 0.479672 37.5973 0.36429C37.4915 0.248909 37.3627 0.156907 37.2192 0.0941774C37.0757 0.0314482 36.9207 -0.000625955 36.7642 9.25361e-06H28.2221C28.0647 -1.58478e-05 27.909 0.03302 27.7651 0.096977C27.6212 0.160934 27.4924 0.254386 27.387 0.371287C27.2815 0.488187 27.2018 0.62593 27.1529 0.775598C27.1041 0.925266 27.0872 1.08352 27.1034 1.24013L27.2248 2.42532C23.7613 3.59969 20.7449 5.81461 18.5873 8.76755C16.2936 11.9064 14.9855 15.6567 14.8294 19.5412C14.081 19.7824 13.4434 20.283 13.0316 20.9528C12.6197 21.6225 12.4606 22.4174 12.583 23.1941C12.7054 23.9708 13.1013 24.6782 13.6992 25.1888C14.2971 25.6994 15.0578 25.9796 15.8441 25.9789H16.1331C16.3363 26.9076 16.6147 27.8183 16.9657 28.7019L17.3906 29.7744C16.9002 30.2247 16.5506 30.8073 16.3841 31.4519C16.2175 32.0965 16.2411 32.7755 16.4521 33.407C16.663 34.0385 17.0521 34.5954 17.5726 35.0106C18.0931 35.4257 18.7226 35.6814 19.3852 35.7466L20.2177 41.0626C20.641 43.7238 21.8958 46.1827 23.8022 48.0871V50.0267L21.4636 51.2004C21.3209 51.2392 21.1872 51.3061 21.0705 51.3969L20.8421 51.5126C18.0514 52.8894 15.1101 53.9371 12.0775 54.6345C8.63209 55.453 5.56438 57.4117 3.37207 60.1928C1.17976 62.9738 -0.00851893 66.4141 4.59784e-05 69.9553V92.9567C4.59784e-05 93.255 0.118519 93.541 0.329401 93.7519C0.540283 93.9628 0.826301 94.0812 1.12453 94.0812H63.8531C64.1513 94.0812 64.4373 93.9628 64.6482 93.7519C64.8591 93.541 64.9775 93.255 64.9775 92.9567V69.9553C64.9861 66.4141 63.7978 62.9738 61.6055 60.1928C59.4132 57.4117 56.3455 55.453 52.9001 54.6345H52.9059ZM11.216 91.8352H2.25481V69.9553C2.24823 67.1685 3.10672 64.4483 4.71183 62.17C6.31693 59.8918 8.58953 58.1679 11.216 57.2362V91.8352ZM26.5195 5.11369C27.2327 4.78956 27.9713 4.52465 28.728 4.32163C28.9868 4.25283 29.2126 4.0939 29.3647 3.87344C29.5168 3.65299 29.5852 3.38549 29.5576 3.11909L29.468 2.25188H35.5154L35.4258 3.11909C35.3982 3.38549 35.4666 3.65299 35.6187 3.87344C35.7708 4.0939 35.9966 4.25283 36.2554 4.32163C37.0118 4.52408 37.7505 4.78802 38.4639 5.11079V6.64865C38.4645 8.47935 37.9132 10.2677 36.8818 11.7802C35.8504 13.2927 34.387 14.4591 32.6825 15.1271C30.8864 14.515 29.3273 13.3553 28.2244 11.8112C27.1216 10.267 26.5304 8.41611 26.5339 6.51857L26.5195 5.11369ZM20.3969 10.1175C21.4658 8.65435 22.7756 7.3836 24.2705 6.35958V6.50412C24.2667 8.90068 25.0233 11.2367 26.4316 13.1758C27.8398 15.115 29.8271 16.5573 32.1072 17.2952L32.3414 17.3703C32.573 17.4481 32.8237 17.4481 33.0554 17.3703C35.2884 16.6018 37.2262 15.1559 38.5988 13.2341C39.9713 11.3123 40.7103 9.01027 40.7129 6.64865V6.35958C42.206 7.37172 43.5167 8.62966 44.5893 10.0799C46.5724 12.7881 47.7226 16.0158 47.8992 19.3678H17.0871C17.2743 16.0295 18.4238 12.8168 20.3969 10.1175ZM15.8412 23.7328C15.6985 23.7403 15.5559 23.7186 15.4219 23.6692C15.2879 23.6198 15.1654 23.5436 15.0618 23.4453C14.9582 23.347 14.8756 23.2286 14.8193 23.0974C14.7629 22.9662 14.7338 22.8248 14.7338 22.682C14.7338 22.5392 14.7629 22.3979 14.8193 22.2666C14.8756 22.1354 14.9582 22.017 15.0618 21.9187C15.1654 21.8204 15.2879 21.7442 15.4219 21.6948C15.5559 21.6454 15.6985 21.6237 15.8412 21.6312H49.1451C49.2877 21.6237 49.4304 21.6454 49.5644 21.6948C49.6984 21.7442 49.8209 21.8204 49.9245 21.9187C50.0281 22.017 50.1106 22.1354 50.167 22.2666C50.2234 22.3979 50.2524 22.5392 50.2524 22.682C50.2524 22.8248 50.2234 22.9662 50.167 23.0974C50.1106 23.2286 50.0281 23.347 49.9245 23.4453C49.8209 23.5436 49.6984 23.6198 49.5644 23.6692C49.4304 23.7186 49.2877 23.7403 49.1451 23.7328H15.8412ZM46.4827 25.9818C46.4336 26.2506 46.3758 26.5194 46.3151 26.7854V25.9818H46.4827ZM19.2291 25.9818V28.2943L19.0585 27.8636C18.8134 27.2474 18.6087 26.6159 18.4457 25.9731L19.2291 25.9818ZM22.4436 40.7244L21.4636 34.4747C21.4223 34.2099 21.2877 33.9686 21.0842 33.7942C20.8807 33.6198 20.6216 33.5239 20.3536 33.5236H19.7321C19.4128 33.5236 19.1065 33.3968 18.8807 33.171C18.6549 32.9452 18.5281 32.639 18.5281 32.3197C18.5281 32.0003 18.6549 31.6941 18.8807 31.4683C19.1065 31.2425 19.4128 31.1157 19.7321 31.1157H20.3536C20.6518 31.1157 20.9378 30.9972 21.1487 30.7863C21.3596 30.5754 21.4781 30.2894 21.4781 29.9912V25.9818H44.0661V29.9825C44.0661 30.2807 44.1846 30.5668 44.3955 30.7776C44.6063 30.9885 44.8924 31.107 45.1906 31.107H45.7687C45.9584 31.2428 46.1859 31.3156 46.4191 31.3151H46.4712C46.686 31.4585 46.849 31.6673 46.9359 31.9105C47.0229 32.1537 47.0292 32.4185 46.954 32.6656C46.8787 32.9127 46.7259 33.129 46.5182 33.2825C46.3105 33.436 46.0588 33.5185 45.8005 33.5179H45.179C44.911 33.5181 44.6519 33.614 44.4484 33.7884C44.2449 33.9628 44.1103 34.2041 44.069 34.4689L43.089 40.7186C42.7037 43.1808 41.4513 45.4242 39.5577 47.0444C37.6642 48.6646 35.2541 49.555 32.762 49.555C30.2699 49.555 27.8598 48.6646 25.9662 47.0444C24.0727 45.4242 22.8203 43.1808 22.4349 40.7186L22.4436 40.7244ZM26.057 50.4054V49.8851C26.2969 50.0354 26.5426 50.1742 26.7941 50.3129C28.633 51.2955 30.6857 51.8095 32.7706 51.8095C34.8556 51.8095 36.9083 51.2955 38.7472 50.3129L38.964 50.1944V54.7097C38.1393 55.5973 37.1405 56.3053 36.0298 56.7895C34.9192 57.2736 33.7206 57.5235 32.509 57.5235C31.2974 57.5235 30.0989 57.2736 28.9882 56.7895C27.8776 56.3053 26.8787 55.5973 26.0541 54.7097V51.0096C26.1109 50.8081 26.1099 50.5948 26.0512 50.3939L26.057 50.4054ZM22.8772 53.0071L23.7964 52.5474V55.1288C23.7966 55.3945 23.8908 55.6516 24.0624 55.8544C25.1006 57.0792 26.3931 58.0633 27.85 58.7382C29.3069 59.4131 30.8933 59.7627 32.4989 59.7627C34.1045 59.7627 35.6909 59.4131 37.1478 58.7382C38.6047 58.0633 39.8972 57.0792 40.9355 55.8544C41.107 55.6516 41.2013 55.3945 41.2014 55.1288V52.2006L42.0918 52.6891V61.2254C42.0918 63.7734 41.0796 66.217 39.2778 68.0187C37.4761 69.8205 35.0325 70.8327 32.4845 70.8327C29.9364 70.8327 27.4928 69.8205 25.6911 68.0187C23.8894 66.217 22.8772 63.7734 22.8772 61.2254V53.0071ZM42.482 91.838H24.3572V81.9836C27.2193 83.2139 30.3011 83.851 33.4163 83.8564C36.5316 83.8619 39.6156 83.2356 42.482 82.0154V91.838ZM51.5126 91.838H44.7396V80.2405C44.7397 80.0471 44.6899 79.857 44.5951 79.6885C44.5002 79.52 44.3635 79.3788 44.1982 79.2785C44.0328 79.1782 43.8444 79.1223 43.6511 79.1161C43.4579 79.11 43.2663 79.1537 43.0948 79.2432C40.1111 80.8025 36.7935 81.614 33.4269 81.6079C30.0603 81.6019 26.7456 80.7785 23.7675 79.2085C23.5961 79.1178 23.4042 79.0729 23.2103 79.0783C23.0164 79.0836 22.8272 79.139 22.6611 79.2391C22.495 79.3392 22.3576 79.4806 22.2622 79.6494C22.1669 79.8183 22.1168 80.009 22.1169 80.2029V91.8352H13.465V56.5973C15.925 55.9792 18.325 55.1433 20.6369 54.0998V61.2254C20.6369 64.3687 21.8855 67.3833 24.1082 69.6059C26.3309 71.8286 29.3455 73.0773 32.4888 73.0773C35.6321 73.0773 38.6467 71.8286 40.8694 69.6059C43.092 67.3833 44.3407 64.3687 44.3407 61.2254V53.8714C46.637 55.0111 49.039 55.9241 51.5126 56.5973V91.838ZM62.7257 91.838H53.7645V57.2362C56.391 58.1679 58.6635 59.8918 60.2687 62.17C61.8738 64.4483 62.7323 67.1685 62.7257 69.9553V91.838Z" fill="#3879F0"/>
<path d="M32.4946 64.4948C32.7879 64.4948 33.0746 64.4078 33.3185 64.2449C33.5623 64.082 33.7524 63.8504 33.8646 63.5794C33.9769 63.3084 34.0063 63.0102 33.9491 62.7225C33.8918 62.4349 33.7506 62.1706 33.5432 61.9632C33.3358 61.7558 33.0716 61.6147 32.7839 61.5574C32.4963 61.5002 32.1981 61.5295 31.9271 61.6418C31.6561 61.754 31.4245 61.9442 31.2616 62.188C31.0986 62.4319 31.0117 62.7186 31.0117 63.0119C31.0117 63.4052 31.1679 63.7823 31.446 64.0604C31.7241 64.3385 32.1013 64.4948 32.4946 64.4948Z" fill="#3879F0"/>
<path d="M32.4946 69.1489C32.7879 69.1489 33.0746 69.0619 33.3185 68.899C33.5623 68.736 33.7524 68.5044 33.8646 68.2334C33.9769 67.9625 34.0063 67.6642 33.9491 67.3766C33.8918 67.0889 33.7506 66.8247 33.5432 66.6173C33.3358 66.4099 33.0716 66.2687 32.7839 66.2115C32.4963 66.1543 32.1981 66.1836 31.9271 66.2958C31.6561 66.4081 31.4245 66.5982 31.2616 66.8421C31.0986 67.0859 31.0117 67.3726 31.0117 67.6659C31.0117 68.0592 31.1679 68.4364 31.446 68.7145C31.7241 68.9926 32.1013 69.1489 32.4946 69.1489Z" fill="#3879F0"/>
<path d="M92.2051 36.0819L92.1589 36.0327C92.0335 35.8987 91.8772 35.7974 91.7036 35.7376C91.53 35.6779 91.3444 35.6616 91.163 35.6901C90.9817 35.7186 90.81 35.7911 90.6632 35.9012C90.5163 36.0113 90.3987 36.1557 90.3204 36.3218L84.7789 41.8633L77.6041 40.5307L76.2715 33.3559L82.0038 27.6236C82.2146 27.4128 82.3329 27.1269 82.3329 26.8287C82.3329 26.5306 82.2146 26.2446 82.0038 26.0337L81.9547 25.9846C81.7691 25.7995 81.5247 25.685 81.2638 25.6609C78.497 25.4068 75.725 26.087 73.3902 27.5929C71.0553 29.0987 69.2923 31.3434 68.3825 33.9686C67.4727 36.5938 67.4686 39.4481 68.3709 42.0758C69.2733 44.7036 71.03 46.9533 73.3606 48.4657V78.1129C71.9055 79.2701 70.8463 80.8511 70.3298 82.6371C69.8133 84.423 69.865 86.3254 70.4778 88.0806C71.0907 89.8358 72.2342 91.357 73.7501 92.4334C75.2659 93.5097 77.0791 94.0879 78.9382 94.0879C80.7974 94.0879 82.6105 93.5097 84.1263 92.4334C85.6422 91.357 86.7858 89.8358 87.3986 88.0806C88.0114 86.3254 88.0631 84.423 87.5466 82.6371C87.0301 80.8511 85.9709 79.2701 84.5158 78.1129V49.6422C87.0301 48.6901 89.1672 46.9472 90.6056 44.6758C92.0439 42.4044 92.7056 39.7273 92.4913 37.0474C92.5219 36.8753 92.512 36.6984 92.4624 36.5308C92.4127 36.3632 92.3246 36.2095 92.2051 36.0819ZM85.6519 85.12C85.6519 86.4475 85.2582 87.7453 84.5207 88.8491C83.7831 89.9529 82.7348 90.8132 81.5083 91.3213C80.2818 91.8293 78.9322 91.9623 77.6302 91.7033C76.3281 91.4443 75.1321 90.805 74.1934 89.8663C73.2546 88.9275 72.6154 87.7315 72.3564 86.4295C72.0974 85.1274 72.2303 83.7778 72.7383 82.5513C73.2463 81.3248 74.1067 80.2765 75.2105 79.539C76.3143 78.8014 77.6121 78.4077 78.9397 78.4077C80.7199 78.4077 82.4272 79.1149 83.6859 80.3737C84.9447 81.6325 85.6519 83.3398 85.6519 85.12ZM75.624 76.8034V49.6133C77.7394 50.4328 80.0389 50.6567 82.2726 50.2608V76.8034C80.139 75.9476 77.7576 75.9476 75.624 76.8034ZM87.3141 45.2281C86.1798 46.3609 84.794 47.2098 83.2695 47.7054C81.745 48.2011 80.1249 48.3295 78.5414 48.0803C76.9578 47.831 75.4556 47.2111 74.157 46.2712C72.8585 45.3312 71.8004 44.0978 71.069 42.6713C70.3376 41.2448 69.9535 39.6657 69.9482 38.0627C69.9428 36.4596 70.3162 34.878 71.0381 33.4467C71.76 32.0154 72.8098 30.7748 74.1021 29.8262C75.3943 28.8776 76.8924 28.2477 78.4742 27.9879L74.2769 32.1852C74.1481 32.3143 74.0526 32.4729 73.9988 32.6471C73.9449 32.8214 73.9342 33.0061 73.9676 33.1854L75.5488 41.7014C75.5905 41.9245 75.6986 42.1297 75.8591 42.2902C76.0196 42.4506 76.2248 42.5588 76.4479 42.6004L84.9639 44.1817C85.1432 44.2151 85.3279 44.2044 85.5022 44.1505C85.6764 44.0966 85.8349 44.0012 85.9641 43.8724L90.1614 39.6751C89.8203 41.7802 88.8227 43.7237 87.3112 45.2281H87.3141Z" fill="#3879F0"/>
<path d="M30.6731 11.2363H34.7202C35.0184 11.2363 35.3044 11.1178 35.5153 10.9069C35.7262 10.696 35.8446 10.41 35.8446 10.1118C35.8446 9.81356 35.7262 9.52755 35.5153 9.31667C35.3044 9.10578 35.0184 8.9873 34.7202 8.9873H30.6731C30.3749 8.9873 30.0889 9.10578 29.878 9.31667C29.6672 9.52755 29.5487 9.81356 29.5487 10.1118C29.5487 10.41 29.6672 10.696 29.878 10.9069C30.0889 11.1178 30.3749 11.2363 30.6731 11.2363Z" fill="#3879F0"/>
<path d="M30.6731 7.51582H34.7202C35.0184 7.51582 35.3044 7.39735 35.5153 7.18647C35.7262 6.97559 35.8446 6.68957 35.8446 6.39133C35.8446 6.0931 35.7262 5.80709 35.5153 5.59621C35.3044 5.38532 35.0184 5.26685 34.7202 5.26685H30.6731C30.3749 5.26685 30.0889 5.38532 29.878 5.59621C29.6672 5.80709 29.5487 6.0931 29.5487 6.39133C29.5487 6.68957 29.6672 6.97559 29.878 7.18647C30.0889 7.39735 30.3749 7.51582 30.6731 7.51582Z" fill="#3879F0"/>
</svg>
