<svg width="94" height="94" viewBox="0 0 94 94" fill="none" xmlns="http://www.w3.org/2000/svg">
<path d="M81.8783 43.5535V41.8824C81.8783 37.4081 80.1009 33.1172 76.9371 29.9534C73.7733 26.7896 69.4824 25.0122 65.0081 25.0122C60.5339 25.0122 56.2429 26.7896 53.0791 29.9534C49.9154 33.1172 48.138 37.4081 48.138 41.8824V48.0965H42.0047C41.5957 48.0995 41.2045 48.2648 40.9172 48.5559C40.6299 48.847 40.4698 49.2402 40.4721 49.6493V55.8634C40.4698 56.2724 40.6299 56.6657 40.9172 56.9568C41.2045 57.2479 41.5957 57.4131 42.0047 57.4162H42.1577L43.6008 71.3972H37.3953V4.60068C37.3953 3.38051 36.9106 2.2103 36.0478 1.34751C35.185 0.484712 34.0148 0 32.7947 0C31.5745 0 30.4043 0.484712 29.5415 1.34751C28.6787 2.2103 28.194 3.38051 28.194 4.60068V71.4001H12.868C12.0497 71.4062 11.2671 71.7365 10.692 72.3187C10.1169 72.9009 9.79606 73.6873 9.7999 74.5057V78.9736L6.778 91.2171C6.7227 91.4467 6.71994 91.6859 6.76992 91.9168C6.81989 92.1477 6.92131 92.3643 7.06663 92.5505C7.20898 92.7361 7.39207 92.8865 7.60174 92.99C7.81142 93.0936 8.04209 93.1477 8.27596 93.148H80.3312C80.7402 93.1449 81.1313 92.9797 81.4187 92.6886C81.706 92.3974 81.8661 92.0042 81.8638 91.5952V85.4648L84.0285 64.6347C84.7728 64.2177 85.3914 63.6086 85.8199 62.8709C86.2484 62.1332 86.471 61.2941 86.4645 60.441V49.2625C86.4689 47.9276 86.0141 46.6317 85.1765 45.5922C84.3388 44.5528 83.1692 43.833 81.8638 43.5535H81.8783ZM51.2061 41.8824C51.2061 38.2219 52.6602 34.7113 55.2486 32.1229C57.837 29.5345 61.3476 28.0803 65.0081 28.0803C68.6686 28.0803 72.1793 29.5345 74.7676 32.1229C77.356 34.7113 78.8102 38.2219 78.8102 41.8824V43.4352H64.6242C63.2909 43.4416 62.0009 43.9094 60.9733 44.7591C59.9458 45.6088 59.2441 46.7881 58.9874 48.0965H51.1945L51.2061 41.8824ZM43.5373 51.2021H58.8719V54.3077H43.5373V51.2021ZM45.2402 57.4162H58.8719V60.4381C58.8761 61.7154 59.3844 62.9394 60.2862 63.8439C60.7111 64.2751 61.2188 64.616 61.7788 64.8461C62.3387 65.0762 62.9394 65.1909 63.5448 65.1831C64.6544 65.162 65.7187 64.7395 66.5407 63.994C67.3788 64.759 68.4726 65.1831 69.6073 65.1831C70.7421 65.1831 71.8359 64.759 72.674 63.994C73.5121 64.759 74.6059 65.1831 75.7406 65.1831C76.8754 65.1831 77.9692 64.759 78.8073 63.994C79.3996 64.5343 80.1246 64.9077 80.9085 65.0763L78.9603 83.8369H57.0045L55.7981 78.9765V74.5086C55.8019 73.6902 55.4811 72.9037 54.906 72.3216C54.3308 71.7394 53.5483 71.4091 52.73 71.403H46.6949L45.2402 57.4162ZM31.265 4.60068C31.265 4.19383 31.4266 3.80364 31.7143 3.51595C32.002 3.22826 32.3921 3.06664 32.799 3.06664C33.2059 3.06664 33.596 3.22826 33.8837 3.51595C34.1714 3.80364 34.333 4.19383 34.333 4.60068V71.4001H31.265V4.60068ZM12.868 74.5086H52.7387V77.6142H12.868V74.5086ZM16.3661 90.0424L18.6751 80.7227H21.648L19.339 90.0424H16.3661ZM12.5332 80.7227H15.506L13.197 90.0424H10.2242L12.5332 80.7227ZM24.8026 80.7227H28.0035L26.849 90.0424H22.4994L24.8026 80.7227ZM29.943 90.0424L31.0976 80.7227H34.5235L35.678 90.0424H29.943ZM38.7605 90.0424L37.606 80.7227H40.8069L43.1159 90.0424H38.7605ZM46.2648 90.0424L43.9558 80.7227H46.9286L49.2376 90.0424H46.2648ZM52.3981 90.0424L50.0891 80.7227H53.0619L55.3709 90.0424H52.3981ZM78.8044 90.0424H58.5371L57.7694 86.9368H78.8102L78.8044 90.0424ZM83.4051 55.8663V60.4381C83.4145 60.8427 83.2713 61.236 83.0039 61.5398C82.7365 61.8436 82.3645 62.0355 81.962 62.0775C81.7537 62.0878 81.5455 62.0553 81.3504 61.9818C81.1553 61.9083 80.9773 61.7955 80.8276 61.6503C80.6768 61.5043 80.5569 61.3293 80.4751 61.1359C80.3932 60.9425 80.3512 60.7347 80.3514 60.5247V54.3135H77.2776V60.5276C77.2776 60.9344 77.1159 61.3246 76.8282 61.6123C76.5406 61.9 76.1504 62.0616 75.7435 62.0616C75.3367 62.0616 74.9465 61.9 74.6588 61.6123C74.3711 61.3246 74.2095 60.9344 74.2095 60.5276V54.3135H71.1443V60.5276C71.1443 60.9344 70.9826 61.3246 70.695 61.6123C70.4073 61.9 70.0171 62.0616 69.6102 62.0616C69.2034 62.0616 68.8132 61.9 68.5255 61.6123C68.2378 61.3246 68.0762 60.9344 68.0762 60.5276V54.3135H65.0081V60.5276C65.0112 60.9329 64.8546 61.3231 64.572 61.6138C64.2895 61.9044 63.9038 62.072 63.4986 62.0804H63.4784C63.2847 62.0779 63.0934 62.0372 62.9155 61.9604C62.7377 61.8836 62.5768 61.7723 62.4422 61.633C62.1251 61.3171 61.9456 60.8886 61.9429 60.441V49.2625C61.9391 48.5463 62.2195 47.8577 62.7228 47.348C63.226 46.8383 63.9109 46.549 64.6271 46.5437H80.7295C81.4458 46.549 82.1307 46.8383 82.6339 47.348C83.1371 47.8577 83.4176 48.5463 83.4137 49.2625L83.4051 55.8663Z" fill="#3879F0"/>
<path d="M75.3379 69.8473H71.453V81.4991H75.3379V69.8473Z" fill="#3879F0"/>
<path d="M75.3379 67.8269H71.453V71.7118H75.3379V67.8269Z" fill="#3879F0"/>
<path d="M16.9176 50.7519C17.0294 51.0867 17.2437 51.378 17.5301 51.5843C17.8165 51.7907 18.1606 51.9017 18.5137 51.9017C18.8667 51.9017 19.2108 51.7907 19.4973 51.5843C19.7837 51.378 19.998 51.0867 20.1098 50.7519C20.5527 49.4334 21.295 48.2355 22.2785 47.252C23.262 46.2685 24.4599 45.5262 25.7784 45.0833C26.1132 44.9715 26.4045 44.7572 26.6108 44.4707C26.8172 44.1843 26.9282 43.8402 26.9282 43.4872C26.9282 43.1341 26.8172 42.7901 26.6108 42.5036C26.4045 42.2172 26.1132 42.0029 25.7784 41.8911C24.4599 41.4482 23.262 40.7058 22.2785 39.7224C21.295 38.7389 20.5527 37.5409 20.1098 36.2225C19.998 35.8876 19.7837 35.5964 19.4973 35.39C19.2108 35.1837 18.8667 35.0726 18.5137 35.0726C18.1606 35.0726 17.8165 35.1837 17.5301 35.39C17.2437 35.5964 17.0294 35.8876 16.9176 36.2225C16.4747 37.5409 15.7323 38.7389 14.7489 39.7224C13.7654 40.7058 12.5674 41.4482 11.249 41.8911C10.9141 42.0029 10.6229 42.2172 10.4165 42.5036C10.2102 42.7901 10.0991 43.1341 10.0991 43.4872C10.0991 43.8402 10.2102 44.1843 10.4165 44.4707C10.6229 44.7572 10.9141 44.9715 11.249 45.0833C12.5674 45.5262 13.7654 46.2685 14.7489 47.252C15.7323 48.2355 16.4747 49.4334 16.9176 50.7519ZM18.5137 40.4508C19.3424 41.6311 20.3697 42.6585 21.55 43.4872C20.3698 44.3159 19.3424 45.3433 18.5137 46.5235C17.685 45.3433 16.6576 44.3159 15.4773 43.4872C16.6573 42.6593 17.6847 41.6329 18.5137 40.4537V40.4508Z" fill="#3879F0"/>
<path d="M92.061 23.5605C90.7424 23.1178 89.5444 22.3756 88.5609 21.392C87.5774 20.4085 86.8352 19.2105 86.3924 17.8919C86.2806 17.5571 86.0664 17.2658 85.7799 17.0595C85.4935 16.8531 85.1493 16.7421 84.7963 16.7421C84.4433 16.7421 84.0991 16.8531 83.8127 17.0595C83.5263 17.2658 83.312 17.5571 83.2002 17.8919C82.7573 19.2104 82.0149 20.4083 81.0314 21.3918C80.048 22.3753 78.8501 23.1176 77.5316 23.5605C77.1967 23.6723 76.9055 23.8866 76.6992 24.173C76.4928 24.4595 76.3817 24.8036 76.3817 25.1566C76.3817 25.5097 76.4928 25.8538 76.6992 26.1402C76.9055 26.4266 77.1967 26.6409 77.5316 26.7527C78.8501 27.1956 80.048 27.9379 81.0314 28.9214C82.0149 29.9049 82.7573 31.1028 83.2002 32.4213C83.312 32.7562 83.5263 33.0474 83.8127 33.2538C84.0991 33.4601 84.4433 33.5712 84.7963 33.5712C85.1493 33.5712 85.4935 33.4601 85.7799 33.2538C86.0664 33.0474 86.2806 32.7562 86.3924 32.4213C86.8352 31.1027 87.5774 29.9047 88.5609 28.9212C89.5444 27.9377 90.7424 27.1954 92.061 26.7527C92.3959 26.6409 92.6871 26.4266 92.8934 26.1402C93.0998 25.8538 93.2109 25.5097 93.2109 25.1566C93.2109 24.8036 93.0998 24.4595 92.8934 24.173C92.6871 23.8866 92.3959 23.6723 92.061 23.5605ZM84.7963 28.193C83.9676 27.0127 82.9402 25.9853 81.76 25.1566C82.9402 24.3279 83.9676 23.3005 84.7963 22.1203C85.625 23.3005 86.6524 24.3279 87.8326 25.1566C86.6522 25.9862 85.6248 27.0146 84.7963 28.1958V28.193Z" fill="#3879F0"/>
<path d="M8.41455 70.234C8.76816 70.2337 9.11268 70.122 9.3992 69.9147C9.68571 69.7075 9.89965 69.4153 10.0106 69.0795C10.4536 67.7611 11.1959 66.5631 12.1794 65.5796C13.1629 64.5961 14.3608 63.8538 15.6792 63.4109C16.0141 63.2991 16.3053 63.0848 16.5117 62.7984C16.7181 62.5119 16.8291 62.1679 16.8291 61.8149C16.8291 61.4618 16.7181 61.1177 16.5117 60.8313C16.3053 60.5448 16.0141 60.3305 15.6792 60.2187C14.3608 59.7758 13.1629 59.0335 12.1794 58.05C11.1959 57.0665 10.4536 55.8686 10.0106 54.5502C9.89886 54.2153 9.68458 53.9241 9.39813 53.7177C9.11168 53.5114 8.76759 53.4003 8.41455 53.4003C8.06151 53.4003 7.71742 53.5114 7.43098 53.7177C7.14453 53.9241 6.93025 54.2153 6.81846 54.5502C6.37553 55.8686 5.63323 57.0665 4.64974 58.05C3.66625 59.0335 2.46831 59.7758 1.14986 60.2187C0.814987 60.3305 0.523762 60.5448 0.317401 60.8313C0.11104 61.1177 0 61.4618 0 61.8149C0 62.1679 0.11104 62.5119 0.317401 62.7984C0.523762 63.0848 0.814987 63.2991 1.14986 63.4109C2.46831 63.8538 3.66625 64.5961 4.64974 65.5796C5.63323 66.5631 6.37553 67.7611 6.81846 69.0795C6.92945 69.4153 7.14339 69.7075 7.42991 69.9147C7.71642 70.122 8.06094 70.2337 8.41455 70.234ZM8.41455 58.7842C9.24323 59.9645 10.2706 60.9919 11.4509 61.8206C10.2707 62.6493 9.24328 63.6767 8.41455 64.8569C7.58587 63.6767 6.55849 62.6493 5.37822 61.8206C6.55849 60.9919 7.58587 59.9645 8.41455 58.7842Z" fill="#3879F0"/>
</svg>
