<svg width="48" height="48" viewBox="0 0 48 48" fill="none" xmlns="http://www.w3.org/2000/svg">
<g clip-path="url(#clip0_1_394)">
<path d="M4.6455 27.761V39.4839H6.19389V27.7634C6.80086 27.6054 7.3397 27.2772 7.74228 26.8204C8.30976 27.4645 9.14124 27.871 10.0649 27.871C10.9885 27.871 11.82 27.4645 12.3874 26.8204C12.9549 27.4645 13.7864 27.871 14.71 27.871C15.6336 27.871 16.4651 27.4645 17.0326 26.8204C17.6001 27.4645 18.4316 27.871 19.3552 27.871C20.2788 27.871 21.1103 27.4645 21.6778 26.8204C22.2452 27.4645 23.0767 27.871 24.0003 27.871C24.924 27.871 25.7554 27.4645 26.3229 26.8204C26.8904 27.4645 27.7219 27.871 28.6455 27.871C29.5691 27.871 30.4006 27.4645 30.9681 26.8204C31.5356 27.4645 32.3671 27.871 33.2907 27.871C34.2143 27.871 35.0458 27.4645 35.6132 26.8204C36.1807 27.4645 37.0122 27.871 37.9358 27.871C38.8594 27.871 39.6909 27.4645 40.2584 26.8204C40.661 27.2772 41.1998 27.6062 41.8068 27.7634V39.4839H43.3552V27.761C44.6868 27.415 45.6778 26.2134 45.6778 24.7742V22.3262L40.8166 7.74193H33.7838C32.7309 3.31045 28.7492 0 24.0003 0C19.2514 0 15.2698 3.31045 14.2169 7.74193H7.18408L2.32292 22.3262V24.7742C2.32292 26.2134 3.31389 27.415 4.6455 27.761ZM5.4197 26.3226C4.56576 26.3226 3.87131 25.6281 3.87131 24.7742V23.2258H6.96808V24.7742C6.96808 25.6281 6.27363 26.3226 5.4197 26.3226ZM20.1294 10.8387C19.2754 10.8387 18.581 10.1443 18.581 9.29032C18.581 8.1329 19.5503 6.19355 20.1294 6.19355C20.7085 6.19355 21.6778 8.1329 21.6778 9.29032C21.6778 10.1443 20.9833 10.8387 20.1294 10.8387ZM21.0561 19.6877L20.9454 21.6774H17.8974L18.2698 18.3275C19.1144 18.9151 20.0504 19.3788 21.0561 19.6877ZM29.7309 18.3275L30.1033 21.6774H27.0553L26.9446 19.6877C27.9503 19.3788 28.8863 18.9151 29.7309 18.3275ZM36.269 21.6774L34.2042 9.29032H36.5407L39.2938 21.6774H36.269ZM34.6997 21.6774H31.661L31.1562 17.1314C32.1131 16.1628 32.868 14.9985 33.372 13.7086L34.6997 21.6774ZM25.4125 20.0183L25.5046 21.6774H22.4961L22.5882 20.0183C23.0512 20.0834 23.5196 20.129 24.0003 20.129C24.4811 20.129 24.9495 20.0834 25.4125 20.0183ZM16.3397 21.6774H13.301L14.6287 13.7094C15.132 14.9992 15.8876 16.1628 16.8445 17.1321L16.3397 21.6774ZM11.7317 21.6774H8.70692L11.46 9.29032H13.7965L11.7317 21.6774ZM10.0649 26.3226C9.21092 26.3226 8.51647 25.6281 8.51647 24.7742V23.2258H11.6132V24.7742C11.6132 25.6281 10.9188 26.3226 10.0649 26.3226ZM14.71 26.3226C13.8561 26.3226 13.1616 25.6281 13.1616 24.7742V23.2258H16.2584V24.7742C16.2584 25.6281 15.564 26.3226 14.71 26.3226ZM19.3552 26.3226C18.5012 26.3226 17.8068 25.6281 17.8068 24.7742V23.2258H20.9036V24.7742C20.9036 25.6281 20.2091 26.3226 19.3552 26.3226ZM24.0003 26.3226C23.1464 26.3226 22.452 25.6281 22.452 24.7742V23.2258H25.5487V24.7742C25.5487 25.6281 24.8543 26.3226 24.0003 26.3226ZM28.6455 26.3226C27.7916 26.3226 27.0971 25.6281 27.0971 24.7742V23.2258H30.1939V24.7742C30.1939 25.6281 29.4994 26.3226 28.6455 26.3226ZM33.2907 26.3226C32.4367 26.3226 31.7423 25.6281 31.7423 24.7742V23.2258H34.8391V24.7742C34.8391 25.6281 34.1446 26.3226 33.2907 26.3226ZM37.9358 26.3226C37.0819 26.3226 36.3874 25.6281 36.3874 24.7742V23.2258H39.4842V24.7742C39.4842 25.6281 38.7898 26.3226 37.9358 26.3226ZM42.581 26.3226C41.7271 26.3226 41.0326 25.6281 41.0326 24.7742V23.2258H44.1294V24.7742C44.1294 25.6281 43.4349 26.3226 42.581 26.3226ZM43.8298 21.6774H40.8793L38.1263 9.29032H39.7002L43.8298 21.6774ZM24.0003 1.54839C28.6958 1.54839 32.5165 5.36903 32.5165 10.0645C32.5165 13.0467 30.9727 15.6712 28.6455 17.1933V12.2772C29.9771 11.9311 30.9681 10.7295 30.9681 9.29032V5.41935H29.4197V9.29032C29.4197 9.8609 29.1061 10.3548 28.6455 10.6235V5.41935H27.0971V10.6235C26.6365 10.3548 26.3229 9.8609 26.3229 9.29032V5.41935H24.7745V9.29032C24.7745 10.7295 25.7655 11.9311 27.0971 12.2772V17.9892C26.1356 18.3662 25.0935 18.5806 24.0003 18.5806C22.9072 18.5806 21.8651 18.3662 20.9036 17.9892V12.2772C22.2352 11.9311 23.2261 10.7295 23.2261 9.29032C23.2261 7.69471 22.02 4.64516 20.1294 4.64516C18.2388 4.64516 17.0326 7.69471 17.0326 9.29032C17.0326 10.7295 18.0236 11.9311 19.3552 12.2772V17.1933C17.028 15.6712 15.4842 13.0467 15.4842 10.0645C15.4842 5.36903 19.3049 1.54839 24.0003 1.54839ZM8.30047 9.29032H9.87441L7.12137 21.6774H4.17092L8.30047 9.29032Z" fill="white"/>
<path d="M21.6776 37.9355H20.1292V39.4839H21.6776V37.9355Z" fill="white"/>
<path d="M8.51598 36.3871H14.7095V30.1936H8.51598V36.3871ZM10.0644 31.742H13.1611V34.8388H10.0644V31.742Z" fill="white"/>
<path d="M33.2903 36.3871H39.4838V30.1936H33.2903V36.3871ZM34.8387 31.742H37.9354V34.8388H34.8387V31.742Z" fill="white"/>
<path d="M46.4516 44.9032V46.4516H34.0645V44.9032H32.5161V46.4516H30.9677V29.4193H17.0323V46.4516H15.4839V44.9032H13.9355V46.4516H1.54839V44.9032H0V48H14.7097H15.4839H32.5161H33.2903H48V44.9032H46.4516ZM18.5806 30.9677H29.4194V46.4516H18.5806V30.9677Z" fill="white"/>
<path d="M47.9999 44.9032H32.516V43.3548C32.516 41.7693 33.7137 40.4586 35.2512 40.279C35.838 39.2446 36.9637 38.599 38.2078 38.7228C39.3358 37.7125 41.1792 37.7125 42.3072 38.7228C43.5529 38.6028 44.6778 39.2454 45.2639 40.279C46.8022 40.4586 47.9999 41.7693 47.9999 43.3548V44.9032Z" fill="white"/>
<path d="M15.4839 44.9032H0V43.3548C0 41.7693 1.19768 40.4586 2.73523 40.279C3.32206 39.2446 4.44774 38.599 5.69187 38.7228C6.81987 37.7125 8.66323 37.7125 9.79123 38.7228C11.0369 38.6028 12.1618 39.2454 12.7479 40.279C14.2862 40.4586 15.4839 41.7693 15.4839 43.3548V44.9032Z" fill="white"/>
<circle cx="24" cy="10" r="9" fill="#277CFB"/>
</g>
<defs>
<clipPath id="clip0_1_394">
<rect width="48" height="48" fill="white"/>
</clipPath>
</defs>
</svg>
