<svg width="48" height="48" viewBox="0 0 48 48" fill="none" xmlns="http://www.w3.org/2000/svg">
<path d="M47.25 9.75H45.5857L44.5117 5.45325C44.2605 4.45125 43.3628 3.75 42.3285 3.75H37.5C36.2595 3.75 35.25 4.7595 35.25 6C35.25 7.2405 36.2595 8.25 37.5 8.25H39C40.2405 8.25 41.25 7.2405 41.25 6V5.25H42.3285C42.6727 5.25 42.9728 5.484 43.056 5.81775L44.0393 9.75H39C38.3647 9.75 37.7925 10.017 37.383 10.4423C36.9165 10.0177 36.3022 9.7515 35.6227 9.7515L26.916 9.75075C27.8918 8.79675 28.5 7.4685 28.5 6C28.5 3.10575 26.145 0.75 23.25 0.75C20.355 0.75 18 3.10575 18 6C18 7.67475 18.7913 9.165 20.016 10.1273C18.5385 10.641 17.2822 11.655 16.4685 12.9877C15.1388 10.1512 12.2655 8.25 9 8.25C4.45125 8.25 0.75 11.9513 0.75 16.5C0.75 18.3075 1.33575 20.0205 2.40225 21.4395C1.4205 22.0013 0.75 23.0467 0.75 24.2565C0.75 25.6845 1.665 26.9078 3 27.3413V27.36C3 28.7663 3.57375 30.0592 4.5 31.0117V31.86C4.5 33.2663 5.07375 34.5592 6 35.5117V36C6 38.379 7.59225 40.3913 9.7665 41.0332C9.76425 41.106 9.75 41.1772 9.75 41.25C9.75 44.5583 12.4418 47.25 15.75 47.25C19.0583 47.25 21.75 44.5583 21.75 41.25H33.75C33.75 44.5583 36.4417 47.25 39.75 47.25C43.0583 47.25 45.75 44.5583 45.75 41.25H47.25V39.9533C47.25 38.2515 46.6883 36.6818 45.75 35.4053V22.743C45.75 20.592 44.8148 18.6112 43.2735 17.25H47.25V9.75ZM39.75 6C39.75 6.414 39.4132 6.75 39 6.75H37.5C37.0868 6.75 36.75 6.414 36.75 6C36.75 5.586 37.0868 5.25 37.5 5.25H39.75V6ZM38.25 12C38.25 11.586 38.5868 11.25 39 11.25H42.75V15.75H40.6215H39C38.5868 15.75 38.25 15.414 38.25 15V12ZM32.6572 36.5085L32.5365 36.75H30.336C30.7118 36.1043 30.8415 35.3558 30.6833 34.62L28.9417 26.4923C28.419 24.0555 26.4105 22.2068 24 21.825L25.245 15.6022C25.314 15.2535 25.6222 15 25.9755 15L35.6333 14.9993C36.0338 14.9993 36.4095 14.901 36.7493 14.739V15C36.7493 15.5782 36.975 16.101 37.3343 16.5C36.9743 16.899 36.7493 17.4217 36.7493 18V32.787C35.0018 33.465 33.5317 34.7588 32.6572 36.5085ZM19.5 6C19.5 3.93225 21.1823 2.25 23.25 2.25C25.3177 2.25 27 3.93225 27 6C27 8.06775 25.3177 9.75 23.25 9.75C21.1823 9.75 19.5 8.06775 19.5 6ZM22.2292 11.25L35.6227 11.2515C36.2445 11.2515 36.7493 11.757 36.7493 12.3787C36.7493 12.9967 36.249 13.4993 35.6325 13.4993L25.9755 13.5C24.9097 13.5 23.9835 14.2605 23.7735 15.3075L22.185 23.2477L23.0955 23.2523C25.1933 23.2628 27.0345 24.7575 27.4748 26.8065L29.2163 34.935C29.301 35.3265 29.2275 35.7285 29.01 36.0645C28.7917 36.4012 28.455 36.6338 28.065 36.717C27.2527 36.8865 26.4525 36.3532 26.2837 35.5642L24.5422 27.4342C24.393 26.748 23.7765 26.25 23.0753 26.25H21.2917C20.811 25.6763 20.1653 25.245 19.4085 25.0387L15.9923 24.1073C15.7612 23.5185 15.6907 22.8892 15.8085 22.2623L17.07 15.5325C17.535 13.0507 19.7048 11.25 22.2292 11.25ZM25.116 36.6615C24.3135 36.4395 23.6723 35.7878 23.5028 34.941L22.0988 27.921C22.0868 27.8625 22.0665 27.8078 22.0522 27.75H23.0753L24.8167 35.8785C24.8768 36.1583 24.984 36.4178 25.116 36.6615ZM14.2568 22.851C14.2553 23.1187 14.277 23.3865 14.319 23.6505L13.4835 23.4225C13.7535 23.2485 14.01 23.0557 14.2568 22.851ZM2.25 16.5C2.25 12.7778 5.2785 9.75 9 9.75C12.2303 9.75 14.9872 12.0225 15.615 15.1718C15.609 15.2002 15.6008 15.2273 15.5955 15.2557L14.6798 20.142C13.8818 21.3833 12.7005 22.3282 11.3235 22.8337L5.022 21.1155C4.74075 21.039 4.45275 21 4.16475 21H4.0065C3.99825 21 3.99 21.0023 3.98175 21.0023C2.8665 19.7625 2.25 18.1807 2.25 16.5ZM15.75 45.75C13.2682 45.75 11.25 43.7318 11.25 41.25H12.75C12.75 42.9045 14.0955 44.25 15.75 44.25C17.4045 44.25 18.75 42.9045 18.75 41.25H20.25C20.25 43.7318 18.2318 45.75 15.75 45.75ZM17.25 41.25C17.25 42.0773 16.5773 42.75 15.75 42.75C14.9227 42.75 14.25 42.0773 14.25 41.25H17.25ZM11.25 39.75C9.39525 39.75 7.8615 38.3925 7.563 36.6217C8.10375 36.873 8.6925 37.0387 9.31425 37.0905L13.1348 37.4093L13.2593 35.9153L9.43875 35.5965C7.59375 35.442 6.14625 33.9292 6.024 32.1045C6.57525 32.3662 7.1775 32.538 7.81425 32.5905L12.6877 32.997L12.8123 31.503L7.93875 31.0965C6.1335 30.9458 4.71075 29.493 4.53525 27.72L11.0812 29.2305L11.4188 27.7688L3.61125 25.9673C2.81025 25.7828 2.25 25.0785 2.25 24.2565C2.25 23.2882 3.0375 22.5 4.0065 22.5H4.16475C4.32 22.5 4.47525 22.521 4.62675 22.5623L19.014 26.4855C19.842 26.7113 20.46 27.3742 20.6287 28.215L22.0328 35.235C22.3815 36.9825 23.928 38.25 25.7092 38.25H33.4635L33.999 37.179C35.0565 35.064 37.1828 33.75 39.5467 33.75C42.8993 33.75 45.639 36.423 45.7463 39.75H11.25ZM41.25 41.25C41.25 42.0773 40.5773 42.75 39.75 42.75C38.9227 42.75 38.25 42.0773 38.25 41.25H41.25ZM39.75 45.75C37.2682 45.75 35.25 43.7318 35.25 41.25H36.75C36.75 42.9045 38.0955 44.25 39.75 44.25C41.4045 44.25 42.75 42.9045 42.75 41.25H44.25C44.25 43.7318 42.2318 45.75 39.75 45.75ZM44.25 22.743V28.476C43.4048 28.3582 42.75 27.6383 42.75 26.7615V22.7393C42.75 21.951 43.2803 21.2917 44.0003 21.0788C44.1585 21.6097 44.25 22.1677 44.25 22.743ZM43.3807 19.7078C42.141 20.163 41.25 21.3442 41.25 22.7385V26.7607C41.25 28.4648 42.5775 29.8507 44.25 29.9753V33.8655C42.9473 32.8575 41.3182 32.25 39.5467 32.25C39.105 32.25 38.6745 32.2987 38.25 32.37V18C38.25 17.586 38.5868 17.25 39 17.25H40.3747C41.6625 17.7083 42.6997 18.5947 43.3807 19.7078ZM45.75 15.75H44.25V11.25H45.75V15.75Z" fill="white"/>
</svg>
