<svg width="22" height="22" viewBox="0 0 22 22" fill="none" xmlns="http://www.w3.org/2000/svg">
<path d="M16.9777 13.6629C16.7173 13.9348 16.5977 14.3281 16.657 14.7137L17.5508 20.0437C17.6262 20.4955 17.4493 20.9527 17.0984 21.2137C16.7545 21.4846 16.2971 21.5171 15.922 21.3004L11.469 18.7979C11.3141 18.7091 11.1422 18.6614 10.9662 18.656H10.6938C10.5993 18.6712 10.5068 18.7037 10.4223 18.7535L5.96823 21.2679C5.74804 21.3871 5.49869 21.4293 5.25437 21.3871C4.65915 21.2657 4.26201 20.6547 4.35953 20.0102L5.25437 14.6802C5.31369 14.2912 5.19405 13.8958 4.93364 13.6196L1.30301 9.82791C0.999373 9.51049 0.893802 9.03383 1.03255 8.60374C1.16728 8.17474 1.51114 7.86166 1.92638 7.79124L6.92339 7.01016C7.30345 6.96791 7.63725 6.71874 7.80818 6.35041L10.0101 1.48624C10.0624 1.37791 10.1297 1.27824 10.2112 1.19374L10.3017 1.11791C10.3489 1.06158 10.4032 1.01499 10.4635 0.977077L10.5731 0.933743L10.744 0.85791H11.1673C11.5454 0.90016 11.8782 1.14391 12.0521 1.50791L14.2832 6.35041C14.444 6.70466 14.7567 6.95058 15.1177 7.01016L20.1147 7.79124C20.537 7.85624 20.8899 8.17041 21.0296 8.60374C21.1614 9.03816 21.0477 9.51483 20.7381 9.82791L16.9777 13.6629Z" fill="#C8BEB7"/>
</svg>
