<svg width="21" height="22" viewBox="0 0 21 22" fill="none" xmlns="http://www.w3.org/2000/svg">
<path d="M15.9189 13.5135C15.6599 13.7854 15.5409 14.1787 15.5999 14.5643L16.4889 19.8943C16.5639 20.3461 16.3879 20.8032 16.0389 21.0643C15.6969 21.3352 15.2419 21.3677 14.8689 21.151L10.4399 18.6485C10.2859 18.5597 10.1149 18.512 9.93988 18.5066H9.66888C9.57488 18.5217 9.48288 18.5542 9.39888 18.6041L4.96888 21.1185C4.74988 21.2377 4.50188 21.2799 4.25888 21.2377C3.66688 21.1163 3.27188 20.5053 3.36888 19.8607L4.25888 14.5307C4.31788 14.1418 4.19888 13.7464 3.93988 13.4702L0.328876 9.6785C0.0268758 9.36108 -0.0781242 8.88441 0.0598758 8.45433C0.193876 8.02533 0.535876 7.71225 0.948876 7.64183L5.91888 6.86075C6.29688 6.8185 6.62888 6.56933 6.79888 6.201L8.98888 1.33683C9.04088 1.2285 9.10788 1.12883 9.18888 1.04433L9.27888 0.968496C9.32588 0.912163 9.37988 0.865579 9.43988 0.827663L9.54888 0.784329L9.71888 0.708496H10.1399C10.5159 0.750746 10.8469 0.994496 11.0199 1.3585L13.2389 6.201C13.3989 6.55525 13.7099 6.80116 14.0689 6.86075L19.0389 7.64183C19.4589 7.70683 19.8099 8.021 19.9489 8.45433C20.0799 8.88875 19.9669 9.36541 19.6589 9.6785L15.9189 13.5135Z" fill="#FFBD00"/>
</svg>
