<svg width="88" height="95" viewBox="0 0 88 95" fill="none" xmlns="http://www.w3.org/2000/svg">
<path d="M86.0535 36.3609L77.9418 35.5758C77.0812 32.1077 75.6925 28.7939 73.8246 25.7514L78.9946 19.4826C79.2392 19.186 79.3647 18.8084 79.3468 18.4237C79.3288 18.0391 79.1687 17.675 78.8976 17.4026L70.1239 8.59527C69.8527 8.32308 69.49 8.16226 69.107 8.14425C68.7239 8.12624 68.3479 8.25232 68.0525 8.49786L61.8068 13.6923C58.7718 11.8299 55.4758 10.4353 52.0287 9.55507L51.2469 1.39816C51.2102 1.01664 51.0337 0.662392 50.7517 0.404077C50.4697 0.145761 50.1022 0.0017682 49.7205 0L37.7369 0C37.3542 0.000349058 36.9853 0.143706 36.7021 0.402158C36.4188 0.660609 36.2416 1.01566 36.2047 1.39816L35.4229 9.55507C31.9698 10.4333 28.6678 11.828 25.6278 13.6923L19.382 8.49786C19.0866 8.25232 18.7106 8.12624 18.3275 8.14425C17.9445 8.16226 17.5819 8.32308 17.3106 8.59527L8.53689 17.4054C8.26583 17.6778 8.10568 18.0419 8.08774 18.4266C8.0698 18.8113 8.19536 19.1888 8.43988 19.4855L13.6099 25.7514C11.7408 28.7936 10.351 32.1075 9.48987 35.5758L1.38384 36.3609C1.00371 36.398 0.651099 36.5763 0.395113 36.8609C0.139127 37.1456 -0.00177748 37.5159 1.69302e-05 37.8994V50.3883C-0.00177748 50.7718 0.139127 51.1422 0.395113 51.4268C0.651099 51.7114 1.00371 51.8898 1.38384 51.9269L9.48987 52.7176C10.3652 56.179 11.7531 59.4888 13.6071 62.5363L8.43988 68.8051C8.18465 69.1144 8.05922 69.5113 8.0901 69.9117C8.12098 70.3122 8.30576 70.6849 8.60537 70.9511L15.2591 76.8618C15.4226 77.0053 15.6146 77.1126 15.8223 77.1764C16.03 77.2402 16.2488 77.2593 16.4644 77.2322C16.6799 77.2052 16.8873 77.1326 17.073 77.0194C17.2587 76.9062 17.4184 76.7548 17.5417 76.5752L27.1057 62.797C27.3129 62.4991 27.409 62.1374 27.3772 61.7754C27.3453 61.4134 27.1876 61.0742 26.9317 60.8173C23.6456 57.5176 21.4078 53.3135 20.5012 48.7367C19.5946 44.1599 20.0598 39.416 21.8382 35.1047C23.6166 30.7935 26.6282 27.1086 30.4922 24.516C34.3561 21.9235 38.8989 20.5397 43.5461 20.5397C48.1932 20.5397 52.736 21.9235 56.6 24.516C60.4639 27.1086 63.4755 30.7935 65.2539 35.1047C67.0323 39.416 67.4976 44.1599 66.591 48.7367C65.6843 53.3135 63.4465 57.5176 60.1604 60.8173C59.9001 61.0775 59.7409 61.4227 59.7116 61.7904C59.6823 62.1581 59.7848 62.5243 60.0007 62.8228L69.9014 76.601C70.0272 76.7783 70.1888 76.9269 70.3756 77.0372C70.5625 77.1475 70.7705 77.2169 70.9859 77.241C71.2013 77.2651 71.4194 77.2432 71.6258 77.1769C71.8323 77.1105 72.0225 77.0012 72.184 76.856L78.8234 70.9539C79.1231 70.6878 79.3078 70.3151 79.3387 69.9146C79.3696 69.5141 79.2442 69.1173 78.9889 68.808L73.816 62.5363C75.673 59.4893 77.0638 56.1795 77.9418 52.7176L86.0535 51.9326C86.4337 51.8955 86.7863 51.7171 87.0423 51.4325C87.2982 51.1479 87.4392 50.7776 87.4374 50.3941V37.9023C87.4392 37.5188 87.2982 37.1484 87.0423 36.8638C86.7863 36.5792 86.4337 36.4009 86.0535 36.3637V36.3609ZM84.3416 48.9844L76.5266 49.7408C76.203 49.7722 75.8977 49.9059 75.6546 50.1226C75.4116 50.3394 75.2434 50.6281 75.1742 50.947C74.3219 54.8159 72.7749 58.4964 70.609 61.8086C70.4288 62.0852 70.3416 62.4124 70.3601 62.7424C70.3786 63.0723 70.5018 63.3877 70.7117 63.6422L75.6478 69.6245L71.405 73.4122L63.2505 62.0578C66.706 58.2285 68.9801 53.474 69.7966 48.3719C70.6131 43.2697 69.937 38.0392 67.8502 33.3155C65.7634 28.5918 62.3558 24.578 58.0411 21.7615C53.7263 18.945 48.6901 17.4469 43.5439 17.4492C38.3976 17.4514 33.3627 18.9539 29.0504 21.7741C24.7381 24.5944 21.334 28.6112 19.2513 33.3367C17.1686 38.0622 16.497 43.2933 17.3179 48.3948C18.1388 53.4962 20.417 58.2487 23.8759 62.075L16.0209 73.3921L11.7725 69.6217L16.7057 63.6394C16.9156 63.3848 17.0388 63.0695 17.0573 62.7395C17.0758 62.4095 16.9886 62.0823 16.8084 61.8057C14.6432 58.4932 13.0963 54.8128 12.2432 50.9442C12.1752 50.6257 12.008 50.3372 11.7659 50.1203C11.5239 49.9035 11.2194 49.7696 10.8965 49.738L3.08151 48.993V39.3062L10.8965 38.5498C11.2209 38.5181 11.5268 38.3836 11.7699 38.1657C12.013 37.9478 12.1808 37.6579 12.2489 37.3378C13.082 33.4673 14.6305 29.788 16.8141 26.4906C16.9968 26.2111 17.0844 25.8798 17.0638 25.5461C17.0432 25.2125 16.9156 24.8945 16.7 24.6398L11.7097 18.5973L18.4975 11.7784L24.5264 16.7894C24.7797 17.0006 25.0938 17.1246 25.4225 17.1432C25.7512 17.1618 26.0772 17.0739 26.3525 16.8926C29.651 14.7223 33.3153 13.1728 37.1662 12.3199C37.4839 12.2494 37.7712 12.0798 37.987 11.8354C38.2028 11.5909 38.3359 11.2841 38.3674 10.959L39.1207 3.10289H48.311L49.0642 10.959C49.0957 11.2841 49.2289 11.5909 49.4447 11.8354C49.6605 12.0798 49.9478 12.2494 50.2654 12.3199C54.1182 13.176 57.7835 14.7294 61.082 16.904C61.3573 17.0854 61.6833 17.1732 62.012 17.1547C62.3407 17.1361 62.6548 17.0121 62.9081 16.8009L68.9341 11.7898L75.722 18.6059L70.7345 24.6398C70.5235 24.8957 70.4001 25.213 70.3827 25.5448C70.3652 25.8766 70.4546 26.2052 70.6375 26.482C72.821 29.7795 74.3695 33.4588 75.2027 37.3293C75.2698 37.6492 75.437 37.9393 75.6797 38.1573C75.9224 38.3753 76.2281 38.5098 76.5523 38.5412L84.3673 39.2976L84.3416 48.9844Z" fill="#3879F0"/>
<path d="M49.5118 71.1842V47.9477C51.4268 46.85 53.0241 45.2771 54.1481 43.3822C55.2721 41.4873 55.8847 39.3348 55.9261 37.1341C56.0625 34.4276 55.2124 31.7631 53.5324 29.6317C51.8523 27.5003 49.4556 26.0456 46.7839 25.5357C46.5491 25.4821 46.3049 25.4843 46.0711 25.5421C45.8373 25.5998 45.6204 25.7115 45.438 25.8682C45.2555 26.0248 45.1126 26.2221 45.0207 26.4439C44.9289 26.6657 44.8908 26.906 44.9093 27.1453L45.4185 33.6402C44.7867 33.9703 44.0839 34.1428 43.3704 34.1428C42.657 34.1428 41.9542 33.9703 41.3224 33.6402L41.8685 27.1226C41.8889 26.8756 41.8487 26.6274 41.7515 26.3993C41.6543 26.1712 41.503 25.9701 41.3105 25.8131C41.118 25.6562 40.8901 25.5482 40.6464 25.4984C40.4027 25.4486 40.1505 25.4585 39.9116 25.5272C37.5355 26.3127 35.4533 27.7957 33.9387 29.7814C32.424 31.7672 31.5476 34.1628 31.4246 36.6538C31.3015 39.1448 31.9375 41.6147 33.2491 43.739C34.5607 45.8633 36.4865 47.5428 38.7737 48.5569V71.7028C36.8691 72.7962 35.2819 74.3632 34.1671 76.2506C33.0523 78.138 32.448 80.2813 32.4134 82.4709C32.2882 85.1676 33.1269 87.8212 34.7805 89.9599C36.4341 92.0986 38.7955 93.5838 41.4447 94.1515C41.6813 94.2106 41.9285 94.2129 42.1661 94.1581C42.4037 94.1033 42.6248 93.993 42.8112 93.8364C42.9976 93.6797 43.144 93.4812 43.2382 93.2571C43.3325 93.0331 43.372 92.7899 43.3534 92.5477L42.8471 86.0556C43.479 85.7257 44.1817 85.5533 44.8951 85.5533C45.6085 85.5533 46.3113 85.7257 46.9432 86.0556L46.397 92.5731C46.3767 92.8201 46.4168 93.0683 46.5141 93.2964C46.6113 93.5245 46.7626 93.7257 46.9551 93.8826C47.1476 94.0396 47.3755 94.1476 47.6192 94.1974C47.8629 94.2472 48.115 94.2373 48.354 94.1685C50.7336 93.3931 52.8209 91.9165 54.34 89.9339C55.8591 87.9513 56.7384 85.5561 56.8617 83.0649C56.985 80.5738 56.3465 78.104 55.0306 75.9822C53.7146 73.8603 51.7833 72.1863 49.4919 71.1814L49.5118 71.1842ZM49.6768 90.2835L50.0864 85.3897C50.1076 85.1336 50.0637 84.8763 49.9588 84.6415C49.8539 84.4068 49.6914 84.2022 49.4862 84.0465L49.4293 84.0011C48.1143 83.0066 46.506 82.4732 44.8551 82.484C43.2041 82.4948 41.6031 83.0491 40.3012 84.0606C40.1051 84.2175 39.9507 84.42 39.8515 84.6502C39.7523 84.8805 39.7114 85.1315 39.7323 85.3812L40.1249 90.4139C38.6596 89.6788 37.4422 88.5327 36.6229 87.1168C35.8035 85.7008 35.4181 84.077 35.5139 82.4454C35.554 80.6712 36.087 78.9428 37.0536 77.4521C38.0202 75.9614 39.3826 74.7668 40.9896 74.0009C41.2531 73.8772 41.4755 73.681 41.6307 73.4355C41.786 73.19 41.8675 72.9054 41.8657 72.6152V47.4602C41.8677 47.1323 41.7632 46.8125 41.5679 46.5485C41.3726 46.2845 41.097 46.0905 40.782 45.9952C38.9032 45.4354 37.2654 44.2678 36.1274 42.6769C34.9894 41.0859 34.4162 39.1625 34.4985 37.2107C34.4379 35.6639 34.7846 34.1281 35.5041 32.7561C36.2237 31.3841 37.291 30.2235 38.6002 29.3896L38.1935 34.2834C38.1715 34.54 38.215 34.798 38.3199 35.0333C38.4249 35.2686 38.5878 35.4737 38.7936 35.6295L38.8506 35.672C40.1637 36.6661 41.7697 37.2001 43.419 37.1908C45.0682 37.1816 46.6682 36.6297 47.97 35.6209L48.0099 35.5869C48.1984 35.4303 48.3466 35.2311 48.4421 35.0058C48.5376 34.7805 48.5777 34.5358 48.5588 34.2919L48.1606 29.1912C49.6498 29.8912 50.894 31.0202 51.7323 32.4322C52.5705 33.8442 52.9643 35.4742 52.8626 37.1115C52.8061 38.8967 52.2604 40.6325 51.2847 42.131C50.309 43.6294 48.9405 44.8335 47.3272 45.6127C47.0648 45.737 46.8432 45.9329 46.6881 46.1777C46.5331 46.4225 46.4509 46.706 46.4511 46.9955V72.2695C46.4511 72.5982 46.5573 72.9181 46.754 73.182C46.9507 73.4458 47.2275 73.6396 47.5434 73.7345C49.4187 74.2928 51.0543 75.4569 52.1925 77.0432C53.3306 78.6295 53.9066 80.548 53.8297 82.4964C53.8732 84.0409 53.5144 85.5703 52.788 86.9355C52.0617 88.3007 50.9927 89.4552 49.6853 90.2863L49.6768 90.2835Z" fill="#3879F0"/>
</svg>
